# xmcd CD database file
#
# Track frame offsets:
#	150
#	27554
#	52524
#	74663
#	100565
#	135871
#	164818
#	187688
#	219868
#	229747
#	241734
#
# Disc length: 3307 seconds
#
# Revision: 2
# Processed by: cddbd v1.5.2PL0 Copyright (c) Steve Scherf et al.
# Submitted via: CDex 1.51
#
DISCID=840ce90b
DTITLE=Joseph Haydn - Trois symphonies  (Carl Schuricht, Radio-Sinfonieorcheste Stuttgart)
DYEAR=1900
DGENRE=Classique
TTITLE0=Symphonie N°100 en sol majeur ''Militaire'' - I. Adagio - Allegro
TTITLE1=Symphonie N°100 en sol majeur ''Militaire'' - II. Allegretto
TTITLE2=Symphonie N°100 en sol majeur ''Militaire'' - III. Menuet - Moderato - Trio
TTITLE3=Symphonie N°100 en sol majeur ''Militaire'' - IV. Finale - Presto
TTITLE4=Symphonie N°82 en ut majeur ''L'Ours'' - I. Vivace assai
TTITLE5=Symphonie N°82 en ut majeur ''L'Ours'' - II. Allegretto
TTITLE6=Symphonie N°82 en ut majeur ''L'Ours'' - III. Menuet
TTITLE7=Symphonie N°82 en ut majeur ''L'Ours'' - IV. Finale - Presto
TTITLE8=Ouverture en ré majeur ''Acide e Galeta'' - I. Allegro molto  [Thomas Fey, Heidelberg Sinfoniker]
TTITLE9=Ouverture en ré majeur ''Acide e Galeta'' - II. Andante grazioso
TTITLE10=Ouverture en ré majeur ''Acide e Galeta'' - III. Finale - Presto
EXTD=
EXTT0=
EXTT1=
EXTT2=
EXTT3=
EXTT4=
EXTT5=
EXTT6=
EXTT7=
EXTT8=
EXTT9=
EXTT10=
PLAYORDER=
